<?xml version="1.0" encoding="UTF-8"?>
<svg width="117px" height="115px" viewBox="0 0 117 115" version="1.1" xmlns="http://www.w3.org/2000/svg" xmlns:xlink="http://www.w3.org/1999/xlink">
    <!-- Generator: Sketch 57.1 (83088) - https://sketch.com -->
    <title>Group</title>
    <desc>Created with Sketch.</desc>
    <g id="Page-1" stroke="none" stroke-width="1" fill="none" fill-rule="evenodd">
        <g id="Logo" transform="translate(-11.000000, -12.000000)" fill="#317C63">
            <g id="Group" transform="translate(11.000000, 12.000000)">
                <path d="M62,31.9474045 C74.1502645,31.9474045 84,41.79714 84,53.9474045 L84,93.9474045 C84,103.723382 77.6236306,112.010078 68.8029927,114.875393 C71.4426798,111.246237 73,106.778687 73,101.947404 L73,101.947404 L73,75.9474045 C73,63.79714 63.1502645,53.9474045 51,53.9474045 L51,53.9474045 L25,53.9474045 C12.8497355,53.9474045 3,63.79714 3,75.9474045 L3,75.9474045 L3,101.947404 C3,103.164875 3.09889401,104.359247 3.28908717,105.522927 C1.2035038,102.160603 5.20125364e-16,98.1945504 0,93.9474045 L0,53.9474045 C-1.48797825e-15,41.79714 9.8497355,31.9474045 22,31.9474045 L62,31.9474045 Z" id="Rectangle-2"></path>
                <path d="M69.4484588,0.583480246 L104.221789,9.90096587 C113.290712,12.3309767 118.672615,21.6527049 116.242604,30.7216287 L106.925118,65.4949584 C104.892411,73.081124 98.0373337,78.0873543 90.5417778,78.0992328 C93.3360037,75.9797305 95.4978236,72.9835218 96.5610888,69.3796543 L96.6788715,68.961142 L102.890529,45.7789222 C105.292283,36.815451 100.062741,27.6050203 91.1845691,25.0458114 L90.8697133,24.9582593 L67.6874935,18.7466023 C59.6040188,16.5806417 51.3196952,20.6211142 47.8939362,27.9469659 L44.516,27.947 L48.627796,12.6042955 C51.0578068,3.53537177 60.3795351,-1.84653055 69.4484588,0.583480246 Z" id="Rectangle-2"></path>
                <circle id="Oval" cx="22" cy="72.9474045" r="10"></circle>
                <circle id="Oval" cx="52" cy="99.9474045" r="10"></circle>
            </g>
        </g>
    </g>
</svg>